<svg width="91" height="114" viewBox="0 0 91 114" fill="none" xmlns="http://www.w3.org/2000/svg">
<path d="M7.24871 105.007H5.59637L5.25066 106H4.48016L6.09148 101.734H6.75652L8.37078 106H7.59734L7.24871 105.007ZM5.80437 104.409H7.0407L6.42254 102.64L5.80437 104.409ZM12.6676 102.332H11.3375V106H10.6021V102.332H9.28379V101.734H12.6676V102.332ZM17.439 102.332H16.1089V106H15.3736V102.332H14.0552V101.734H17.439V102.332ZM21.1176 105.007H19.4653L19.1196 106H18.3491L19.9604 101.734H20.6254L22.2397 106H21.4662L21.1176 105.007ZM19.6733 104.409H20.9096L20.2914 102.64L19.6733 104.409ZM26.9964 104.611C26.9535 105.066 26.7855 105.422 26.4925 105.678C26.1996 105.932 25.8099 106.059 25.3236 106.059C24.9837 106.059 24.6839 105.979 24.4242 105.818C24.1664 105.656 23.9671 105.427 23.8265 105.13C23.6859 104.833 23.6127 104.488 23.6068 104.096V103.697C23.6068 103.295 23.6781 102.94 23.8207 102.634C23.9632 102.327 24.1673 102.091 24.433 101.925C24.7005 101.759 25.0091 101.676 25.3587 101.676C25.8295 101.676 26.2084 101.804 26.4955 102.06C26.7826 102.315 26.9496 102.677 26.9964 103.144H26.2582C26.223 102.837 26.1332 102.616 25.9886 102.481C25.8461 102.345 25.6361 102.276 25.3587 102.276C25.0365 102.276 24.7884 102.395 24.6146 102.631C24.4427 102.865 24.3548 103.21 24.3509 103.665V104.043C24.3509 104.504 24.433 104.855 24.597 105.098C24.763 105.34 25.0052 105.461 25.3236 105.461C25.6146 105.461 25.8334 105.396 25.9798 105.265C26.1263 105.134 26.2191 104.916 26.2582 104.611H26.9964ZM29.9661 104.157L29.4827 104.67V106H28.7415V101.734H29.4827V103.735L29.8929 103.229L31.1409 101.734H32.0374L30.4524 103.624L32.1282 106H31.2493L29.9661 104.157ZM39.087 102.332H37.757V106H37.0216V102.332H35.7032V101.734H39.087V102.332ZM44.1162 106H43.378V104.104H41.4707V106H40.7295V101.734H41.4707V103.51H43.378V101.734H44.1162V106ZM48.5683 104.096H46.8164V105.408H48.8642V106H46.0752V101.734H48.8437V102.332H46.8164V103.51H48.5683V104.096ZM53.8631 104.415V106H53.1219V101.734H54.7537C55.2303 101.734 55.6082 101.858 55.8875 102.106C56.1688 102.354 56.3094 102.683 56.3094 103.091C56.3094 103.509 56.1717 103.834 55.8963 104.066C55.6229 104.299 55.2391 104.415 54.7449 104.415H53.8631ZM53.8631 103.82H54.7537C55.0174 103.82 55.2186 103.759 55.3572 103.636C55.4959 103.511 55.5652 103.331 55.5652 103.097C55.5652 102.866 55.4949 102.683 55.3543 102.546C55.2137 102.407 55.0203 102.336 54.7742 102.332H53.8631V103.82ZM59.6071 104.356H58.781V106H58.0398V101.734H59.5398C60.032 101.734 60.4118 101.845 60.6794 102.065C60.947 102.286 61.0808 102.605 61.0808 103.023C61.0808 103.309 61.0114 103.548 60.8728 103.741C60.7361 103.933 60.5446 104.08 60.2986 104.184L61.2566 105.962V106H60.4626L59.6071 104.356ZM58.781 103.762H59.5427C59.7927 103.762 59.988 103.699 60.1286 103.574C60.2693 103.447 60.3396 103.274 60.3396 103.056C60.3396 102.827 60.2741 102.65 60.1433 102.525C60.0144 102.4 59.821 102.336 59.5632 102.332H58.781V103.762ZM66.2682 103.979C66.2682 104.396 66.1959 104.764 66.0514 105.08C65.9069 105.395 65.6998 105.637 65.4303 105.807C65.1627 105.975 64.8541 106.059 64.5045 106.059C64.1588 106.059 63.8502 105.975 63.5788 105.807C63.3092 105.637 63.1002 105.396 62.9518 105.083C62.8053 104.771 62.7311 104.41 62.7291 104.002V103.762C62.7291 103.346 62.8024 102.979 62.9489 102.66C63.0973 102.342 63.3053 102.099 63.5729 101.931C63.8424 101.761 64.151 101.676 64.4987 101.676C64.8463 101.676 65.1539 101.76 65.4215 101.928C65.6911 102.094 65.8991 102.334 66.0455 102.648C66.192 102.961 66.2663 103.325 66.2682 103.741V103.979ZM65.527 103.756C65.527 103.283 65.4371 102.921 65.2575 102.669C65.0797 102.417 64.8268 102.291 64.4987 102.291C64.1784 102.291 63.9274 102.417 63.7457 102.669C63.5661 102.919 63.4743 103.273 63.4704 103.732V103.979C63.4704 104.447 63.5612 104.81 63.7428 105.065C63.9264 105.321 64.1803 105.449 64.5045 105.449C64.8327 105.449 65.0846 105.324 65.2604 105.074C65.4381 104.824 65.527 104.459 65.527 103.979V103.756ZM68.0865 106V101.734H69.5484C70.0308 101.734 70.398 101.831 70.65 102.024C70.9019 102.218 71.0279 102.506 71.0279 102.889C71.0279 103.084 70.9752 103.26 70.8697 103.416C70.7642 103.572 70.6099 103.693 70.4068 103.779C70.6373 103.842 70.815 103.96 70.94 104.134C71.067 104.306 71.1304 104.513 71.1304 104.755C71.1304 105.155 71.0015 105.463 70.7437 105.678C70.4879 105.893 70.1207 106 69.6421 106H68.0865ZM68.8277 104.075V105.408H69.6509C69.8834 105.408 70.065 105.351 70.1959 105.235C70.3267 105.12 70.3921 104.96 70.3921 104.755C70.3921 104.312 70.1656 104.085 69.7125 104.075H68.8277ZM68.8277 103.53H69.5543C69.7847 103.53 69.9644 103.479 70.0933 103.375C70.2242 103.27 70.2896 103.121 70.2896 102.93C70.2896 102.719 70.2291 102.566 70.108 102.473C69.9888 102.379 69.8023 102.332 69.5484 102.332H68.8277V103.53ZM73.6928 105.408H75.6294V106H72.9516V101.734H73.6928V105.408ZM79.7709 104.096H78.0189V105.408H80.0668V106H77.2777V101.734H80.0463V102.332H78.0189V103.51H79.7709V104.096ZM82.7113 101.734L83.9417 105.004L85.1693 101.734H86.1273V106H85.389V104.594L85.4622 102.713L84.2025 106H83.6722L82.4154 102.716L82.4886 104.594V106H81.7503V101.734H82.7113ZM17.9312 113H17.19L15.2886 109.974V113H14.5474V108.734H15.2886L17.1958 111.772V108.734H17.9312V113ZM23.2914 110.979C23.2914 111.396 23.2192 111.764 23.0746 112.08C22.9301 112.395 22.7231 112.637 22.4536 112.807C22.186 112.975 21.8774 113.059 21.5278 113.059C21.1821 113.059 20.8735 112.975 20.602 112.807C20.3325 112.637 20.1235 112.396 19.975 112.083C19.8286 111.771 19.7543 111.41 19.7524 111.002V110.762C19.7524 110.346 19.8256 109.979 19.9721 109.66C20.1205 109.342 20.3286 109.099 20.5961 108.931C20.8657 108.761 21.1743 108.676 21.5219 108.676C21.8696 108.676 22.1772 108.76 22.4448 108.928C22.7143 109.094 22.9223 109.334 23.0688 109.648C23.2153 109.961 23.2895 110.325 23.2914 110.741V110.979ZM22.5502 110.756C22.5502 110.283 22.4604 109.921 22.2807 109.669C22.103 109.417 21.85 109.291 21.5219 109.291C21.2016 109.291 20.9506 109.417 20.769 109.669C20.5893 109.919 20.4975 110.273 20.4936 110.732V110.979C20.4936 111.447 20.5844 111.81 20.7661 112.065C20.9496 112.321 21.2036 112.449 21.5278 112.449C21.8559 112.449 22.1079 112.324 22.2836 112.074C22.4614 111.824 22.5502 111.459 22.5502 110.979V110.756ZM27.9398 109.332H26.6097V113H25.8744V109.332H24.556V108.734H27.9398V109.332ZM34.8869 109.332H33.5568V113H32.8215V109.332H31.5031V108.734H34.8869V109.332ZM39.9161 113H39.1778V111.104H37.2706V113H36.5294V108.734H37.2706V110.51H39.1778V108.734H39.9161V113ZM44.3682 111.096H42.6162V112.408H44.6641V113H41.875V108.734H44.6436V109.332H42.6162V110.51H44.3682V111.096ZM49.663 111.415V113H48.9218V108.734H50.5536C51.0302 108.734 51.4081 108.858 51.6874 109.106C51.9686 109.354 52.1093 109.683 52.1093 110.091C52.1093 110.509 51.9716 110.834 51.6962 111.066C51.4227 111.299 51.0389 111.415 50.5448 111.415H49.663ZM49.663 110.82H50.5536C50.8173 110.82 51.0184 110.759 51.1571 110.636C51.2958 110.511 51.3651 110.331 51.3651 110.097C51.3651 109.866 51.2948 109.683 51.1542 109.546C51.0136 109.407 50.8202 109.336 50.5741 109.332H49.663V110.82ZM56.3328 111.096H54.5809V112.408H56.6287V113H53.8396V108.734H56.6082V109.332H54.5809V110.51H56.3328V111.096ZM59.8796 111.356H59.0534V113H58.3122V108.734H59.8122C60.3044 108.734 60.6843 108.845 60.9519 109.065C61.2195 109.286 61.3532 109.605 61.3532 110.023C61.3532 110.309 61.2839 110.548 61.1452 110.741C61.0085 110.933 60.8171 111.08 60.571 111.184L61.529 112.962V113H60.7351L59.8796 111.356ZM59.0534 110.762H59.8152C60.0652 110.762 60.2605 110.699 60.4011 110.574C60.5417 110.447 60.612 110.274 60.612 110.056C60.612 109.827 60.5466 109.65 60.4157 109.525C60.2868 109.4 60.0935 109.336 59.8357 109.332H59.0534V110.762ZM65.3659 111.901C65.3659 111.714 65.2995 111.569 65.1666 111.468C65.0358 111.366 64.7985 111.264 64.4547 111.16C64.111 111.057 63.8375 110.941 63.6344 110.814C63.2457 110.57 63.0514 110.252 63.0514 109.859C63.0514 109.516 63.1911 109.232 63.4704 109.01C63.7516 108.787 64.1159 108.676 64.5631 108.676C64.86 108.676 65.1246 108.73 65.3571 108.84C65.5895 108.949 65.7721 109.105 65.9049 109.309C66.0377 109.51 66.1041 109.733 66.1041 109.979H65.3659C65.3659 109.757 65.2955 109.583 65.1549 109.458C65.0163 109.331 64.817 109.268 64.5573 109.268C64.3151 109.268 64.1266 109.319 63.9918 109.423C63.859 109.526 63.7926 109.671 63.7926 109.856C63.7926 110.013 63.8649 110.144 64.0094 110.249C64.1539 110.353 64.3922 110.454 64.7243 110.554C65.0563 110.651 65.3229 110.764 65.5241 110.891C65.7252 111.016 65.8727 111.16 65.9664 111.324C66.0602 111.486 66.1071 111.677 66.1071 111.896C66.1071 112.251 65.9704 112.534 65.6969 112.745C65.4254 112.954 65.0563 113.059 64.5895 113.059C64.2809 113.059 63.9967 113.002 63.737 112.889C63.4791 112.773 63.278 112.615 63.1334 112.414C62.9909 112.213 62.9196 111.979 62.9196 111.711H63.6608C63.6608 111.953 63.7409 112.141 63.901 112.273C64.0612 112.406 64.2907 112.473 64.5895 112.473C64.8473 112.473 65.0407 112.421 65.1696 112.317C65.3004 112.212 65.3659 112.073 65.3659 111.901ZM71.2418 110.979C71.2418 111.396 71.1695 111.764 71.025 112.08C70.8804 112.395 70.6734 112.637 70.4039 112.807C70.1363 112.975 69.8277 113.059 69.4781 113.059C69.1324 113.059 68.8238 112.975 68.5523 112.807C68.2828 112.637 68.0738 112.396 67.9254 112.083C67.7789 111.771 67.7046 111.41 67.7027 111.002V110.762C67.7027 110.346 67.7759 109.979 67.9224 109.66C68.0709 109.342 68.2789 109.099 68.5464 108.931C68.816 108.761 69.1246 108.676 69.4722 108.676C69.8199 108.676 70.1275 108.76 70.3951 108.928C70.6646 109.094 70.8726 109.334 71.0191 109.648C71.1656 109.961 71.2398 110.325 71.2418 110.741V110.979ZM70.5005 110.756C70.5005 110.283 70.4107 109.921 70.231 109.669C70.0533 109.417 69.8004 109.291 69.4722 109.291C69.1519 109.291 68.9009 109.417 68.7193 109.669C68.5396 109.919 68.4478 110.273 68.4439 110.732V110.979C68.4439 111.447 68.5347 111.81 68.7164 112.065C68.9 112.321 69.1539 112.449 69.4781 112.449C69.8062 112.449 70.0582 112.324 70.2339 112.074C70.4117 111.824 70.5005 111.459 70.5005 110.979V110.756ZM76.4438 113H75.7026L73.8013 109.974V113H73.06V108.734H73.8013L75.7085 111.772V108.734H76.4438V113Z" fill="#494949"/>
<path d="M7.30273 93.877H5.90234V97H4.14453V88.4688H7.31445C8.32227 88.4688 9.09961 88.6934 9.64648 89.1426C10.1934 89.5918 10.4668 90.2266 10.4668 91.0469C10.4668 91.6289 10.3398 92.1152 10.0859 92.5059C9.83594 92.8926 9.45508 93.2012 8.94336 93.4316L10.7891 96.918V97H8.90234L7.30273 93.877ZM5.90234 92.4531H7.32031C7.76172 92.4531 8.10352 92.3418 8.3457 92.1191C8.58789 91.8926 8.70898 91.582 8.70898 91.1875C8.70898 90.7852 8.59375 90.4688 8.36328 90.2383C8.13672 90.0078 7.78711 89.8926 7.31445 89.8926H5.90234V92.4531ZM16.625 95.2422H13.543L12.957 97H11.0879L14.2637 88.4688H15.8926L19.0859 97H17.2168L16.625 95.2422ZM14.0176 93.8184H16.1504L15.0781 90.625L14.0176 93.8184ZM21.6406 95.5879H25.373V97H19.8828V88.4688H21.6406V95.5879ZM28.2559 97H26.498V88.4688H28.2559V97ZM36.1367 89.8926H33.5234V97H31.7656V89.8926H29.1875V88.4688H36.1367V89.8926ZM44.0879 97H42.3301V93.3438H38.9023V97H37.1445V88.4688H38.9023V91.9258H42.3301V88.4688H44.0879V97ZM50.9141 88.4688L53.1055 94.6562L55.2852 88.4688H57.5938V97H55.8301V94.668L56.0059 90.6426L53.7031 97H52.4961L50.1992 90.6484L50.375 94.668V97H48.6172V88.4688H50.9141ZM60.998 97H59.2402V88.4688H60.998V97ZM64.3906 95.5879H68.123V97H62.6328V88.4688H64.3906V95.5879ZM71.0059 97H69.248V88.4688H71.0059V97ZM78.8867 89.8926H76.2734V97H74.5156V89.8926H71.9375V88.4688H78.8867V89.8926ZM86.8379 97H85.0801V93.3438H81.6523V97H79.8945V88.4688H81.6523V91.9258H85.0801V88.4688H86.8379V97Z" fill="#494949"/>
<path d="M37.7914 4.16573C37.3647 4.36828 37.0401 4.76419 36.9102 5.24296C36.836 5.50076 37.0493 6.99232 38.0326 12.9494C39.3869 21.1713 39.3035 20.8675 40.1012 21.2266C41.2515 21.7422 42.4295 20.9964 42.411 19.7534C42.4017 19.5693 41.873 16.2087 41.2329 12.2864C40.3609 6.98312 40.0085 5.06803 39.8786 4.82864C39.4704 4.11048 38.5428 3.81585 37.7914 4.16573Z" fill="#494949"/>
<path d="M52.7169 4.17493C52.485 4.28542 52.2346 4.49719 52.0954 4.70895C51.8728 5.04962 51.78 5.56522 50.8153 12.4338C50.0917 17.5806 49.8042 19.8916 49.8506 20.1402C49.9248 20.5545 50.3886 21.1069 50.806 21.2726C51.6316 21.6225 52.5499 21.245 52.9024 20.4072C53.0601 20.0389 55.0082 6.34783 55.0082 5.61125C55.0082 4.99437 54.6742 4.44194 54.1455 4.19335C53.6538 3.95396 53.2271 3.95396 52.7169 4.17493Z" fill="#494949"/>
<path d="M66.3623 11.2645C66.149 11.3565 65.8707 11.5775 65.7408 11.7432C65.1749 12.4982 59.9617 20.6557 59.8411 20.9872C59.4979 21.9355 60.342 23.0588 61.3995 23.0588C62.021 23.0588 62.4663 22.7458 63.0136 21.9263C64.6184 19.4956 68.468 13.4742 68.5515 13.2624C68.7741 12.6731 68.5979 11.9734 68.1248 11.5315C67.6146 11.0619 67.0116 10.9698 66.3623 11.2645Z" fill="#494949"/>
<path d="M24.5357 12.7376C24.0904 12.9401 23.8956 13.1427 23.7008 13.6031C23.5153 14.045 23.5245 14.3673 23.7379 14.8184C24.0069 15.3985 28.7378 22.2394 29.1274 22.6169C29.5077 22.9852 29.9437 23.1141 30.4632 23.022C31.3908 22.8471 32.0494 21.7514 31.734 20.9228C31.6413 20.6742 26.7063 13.465 26.4002 13.1243C26.1497 12.8481 25.5468 12.5627 25.185 12.5627C25.0366 12.5627 24.7397 12.6455 24.5357 12.7376Z" fill="#494949"/>
<path d="M11.0573 25.2041C10.6584 25.3514 10.2781 25.7289 10.0833 26.1524C9.62875 27.2021 0 54.1606 0 54.4C0 54.7407 0.278287 55.3668 0.51947 55.5785C0.621509 55.6706 0.844139 55.7995 1.02039 55.8732C1.79032 56.1862 11.3077 58.9668 11.6231 58.9668C12.189 58.9668 12.9496 58.488 13.0981 58.0276C13.1166 57.9724 13.9979 58.4235 15.0554 59.022L16.9755 60.1177V60.7253C16.9755 61.8762 17.4393 62.9443 18.3113 63.8005C19.2111 64.6844 20.2779 65.1356 21.4467 65.1356C21.9012 65.1356 21.9847 65.1632 21.9847 65.3013C21.9847 65.7156 22.6526 66.8297 23.2741 67.4466C24.3409 68.5054 25.5561 68.9657 27.0866 68.8921L27.8844 68.8552L28.1905 69.509C28.6265 70.402 29.6005 71.3688 30.5189 71.8015C31.4094 72.2251 32.0309 72.3448 33.1255 72.2987L34.0346 72.2619L34.2479 72.7315C34.5262 73.3207 35.528 74.3427 36.1588 74.6558C37.6523 75.4107 39.4333 75.3095 40.7877 74.4072L41.2236 74.1125L42.3461 74.6742C44.8599 75.9263 47.1512 76.2762 49.2662 75.733C50.0361 75.5396 51.2142 74.9872 51.7986 74.5453L52.1603 74.2783L52.7262 74.5361C54.7484 75.4752 56.6872 75.3463 58.2734 74.1586C58.9969 73.6153 59.6648 72.7775 59.8967 72.1238C60.0173 71.7923 60.1008 71.6726 60.2029 71.7095C60.2771 71.7371 60.6574 71.866 61.0377 72.0041C62.8466 72.6394 64.5812 72.2527 66.0191 70.8992C66.9931 69.9969 67.5033 69.021 67.6702 67.7688L67.7352 67.3269L68.0877 67.3821C68.2825 67.4097 68.7741 67.3913 69.173 67.3453C70.954 67.1059 72.4939 65.8077 73.0226 64.0951C73.2731 63.2757 73.2267 62.0419 72.9206 61.2225C72.8093 60.9187 72.7072 60.5964 72.698 60.5136C72.6887 60.4123 73.403 59.8322 74.9057 58.7458L77.1227 57.1345L77.6608 57.8711C78.2637 58.6813 78.6997 58.9668 79.3119 58.9668C79.618 58.9668 80.6663 58.5156 84.3953 56.7939C90.3228 54.0501 90.2857 54.0685 90.6011 53.6542C90.8237 53.3688 90.8609 53.2307 90.8609 52.7611C90.8609 52.1995 90.8423 52.1627 84.1077 38.9872C80.388 31.7228 77.2619 25.6829 77.1598 25.5724C76.863 25.2501 76.2322 25.0476 75.7684 25.1212C75.4716 25.1673 74.4326 25.7842 71.5199 27.6348C69.4049 28.9883 67.5404 30.1668 67.3827 30.2588C67.1508 30.3877 66.455 30.4706 63.5145 30.71L59.9246 30.9954L59.0248 30.4154C57.3458 29.3381 54.2939 27.8742 52.8746 27.4691C52.0119 27.2205 50.3422 27.0179 49.1363 27.0179C46.9007 27.0179 43.9138 27.5243 42.8192 28.0859C41.9936 28.5003 39.7951 29.8629 38.3202 30.8665L37.1699 31.6491L36.4649 31.5847C36.0753 31.557 35.259 31.4926 34.6468 31.4374C25.519 30.71 23.0793 30.5166 22.9494 30.5166C22.8845 30.5166 22.7175 30.3509 22.5877 30.1484C22.4392 29.9182 22.1888 29.6972 21.9105 29.5591C21.5209 29.3657 14.4617 26.2169 12.7177 25.4527C11.92 25.112 11.484 25.0384 11.0573 25.2041ZM15.9923 30.443C17.8382 31.2532 19.3688 31.953 19.4059 31.9806C19.4894 32.0542 19.1091 34.3192 18.7287 35.9949C17.5043 41.4363 14.8605 48.1299 11.5304 54.1974C10.8532 55.4312 10.8439 55.4496 10.5935 55.376C10.408 55.3115 5.45443 53.8476 3.88675 53.3872C3.76616 53.3504 4.49898 51.242 8.08889 41.2614C10.4729 34.623 12.4487 29.1264 12.4766 29.0619C12.4951 29.0067 12.5415 28.9514 12.5786 28.9514C12.6157 28.9514 14.1463 29.6235 15.9923 30.443ZM81.5939 41.2706C84.5716 47.1171 87.0112 51.9233 87.0112 51.9509C87.0112 52.0154 80.1653 55.2102 79.9242 55.2655C79.7943 55.2931 78.2915 53.111 77.299 51.4629C74.2471 46.3806 71.4921 39.9264 69.9336 34.2087C69.609 33.0302 69.5719 32.7816 69.6739 32.6803C69.7481 32.6159 71.0561 31.7688 72.5866 30.8021L75.3695 29.0435L75.7777 29.8445C76.0003 30.2957 78.6162 35.4333 81.5939 41.2706ZM51.7615 30.5443C53.2178 30.9218 55.7224 32.1371 57.6612 33.4261C58.227 33.8036 58.8114 34.1535 58.9691 34.1995C59.1825 34.2732 60.1379 34.2271 62.8002 34.0154C64.7482 33.8588 66.3623 33.7391 66.3808 33.7668C66.3994 33.7852 66.5849 34.4205 66.7983 35.1755C68.4958 41.3719 71.5941 48.5074 74.8593 53.7279L75.3046 54.4368L72.9855 56.1125C71.7147 57.024 70.6201 57.7974 70.5459 57.8251C70.4809 57.8527 69.813 57.3003 69.006 56.5545C60.1657 48.3877 51.9655 41.0128 50.0917 39.5397C49.0714 38.7386 47.9675 38.398 46.4276 38.4072C45.3794 38.4072 44.6373 38.5269 43.5242 38.8583C42.5502 39.153 42.2162 39.4384 41.6967 40.4512C40.9175 41.9795 39.7116 43.554 38.7376 44.3182C37.6801 45.1468 36.7618 45.4691 35.4817 45.4691C33.7841 45.4599 33.3574 44.6404 34.183 42.9739C34.3963 42.5412 34.7488 42.0532 35.1941 41.5928C35.5651 41.1969 35.9176 40.7918 35.964 40.6905C36.0197 40.5893 36.1403 40.0092 36.2238 39.4015C36.5206 37.3852 36.9751 36.1146 37.643 35.4609C38.5428 34.5954 41.6133 32.487 43.8303 31.2256C44.4703 30.8573 44.7208 30.7744 45.6577 30.6087C47.3552 30.3141 48.0881 30.2496 49.5352 30.2865C50.5741 30.3141 51.0843 30.3693 51.7615 30.5443ZM28.0421 34.1535C30.9085 34.3744 33.4687 34.5862 33.7377 34.6138L34.2108 34.6691L33.9511 35.2399C33.645 35.9212 33.2739 37.2471 33.0791 38.3611C32.9492 39.1345 32.9214 39.1898 32.3463 39.8987C31.2424 41.2338 30.6487 42.5964 30.5467 43.9867C30.4539 45.3862 30.8621 46.5003 31.799 47.3842C32.8194 48.3509 33.8119 48.7008 35.528 48.6916C38.0697 48.6824 39.8508 47.8813 41.8173 45.8558C42.6522 44.9903 43.719 43.5448 44.3868 42.3662C44.526 42.1085 44.7393 41.8875 44.8785 41.823C45.0176 41.7678 45.6113 41.7125 46.1957 41.6849C47.2347 41.6389 47.2718 41.6481 47.7541 41.8967C48.2643 42.1729 50.0546 43.7013 53.6631 46.9514C58.1899 51.021 68.8112 60.7437 69.2379 61.2041C69.6182 61.6276 69.9429 62.355 69.9429 62.7969C69.9429 63.2665 69.6461 63.7361 69.2008 63.9662C68.9504 64.0951 68.7277 64.1228 68.2454 64.0951C67.058 64.0215 66.52 63.6624 62.9857 60.6517C53.5518 52.5954 51.3997 50.7816 51.1307 50.6435C50.7782 50.4593 50.0732 50.4501 49.7392 50.6251C49.1827 50.9105 48.7931 51.509 48.7931 52.0614C48.7931 52.8348 48.6539 52.7059 56.5295 59.4179C63.5887 65.4302 63.9876 65.7801 64.1916 66.2496C64.6369 67.29 64.3864 68.2107 63.4959 68.8092C63.0785 69.0854 62.9857 69.113 62.5497 69.067C61.9561 69.0026 61.2047 68.6159 60.3327 67.9345C59.637 67.3913 53.6538 62.2997 48.2921 57.6962C44.6744 54.5842 44.5724 54.5197 43.7839 54.7315C43.3572 54.8419 42.9026 55.201 42.7171 55.5693C42.5223 55.9376 42.5409 56.7386 42.7542 57.0793C42.9026 57.3279 47.1512 61.02 54.3124 67.1243C56.0656 68.6251 56.381 68.9381 56.6129 69.3893C57.1139 70.3468 57.0118 71.0834 56.3068 71.5622C55.5833 72.0501 54.702 72.0133 53.8208 71.4609C53.5703 71.2951 51.7893 69.8772 49.8877 68.2936C47.9768 66.7192 46.2514 65.3197 46.0473 65.1816C45.7319 64.9698 45.6113 64.9422 45.1197 64.9698C44.7393 64.9882 44.4703 65.0619 44.2941 65.1908L44.0344 65.3841L43.4963 64.8133C42.8284 64.1136 42.0863 63.6992 41.0752 63.4967L40.3239 63.3402L40.2033 62.7693C39.8322 60.9739 38.3851 59.4639 36.4928 58.9115C35.5559 58.6445 34.2015 58.7182 33.1811 59.1141C33.0977 59.1417 32.9585 59.022 32.8101 58.755C32.2442 57.7974 30.8342 56.8123 29.684 56.5637C29.0625 56.4348 27.5319 56.4992 27.0217 56.6834L26.6228 56.8215L26.4559 56.5361C25.5561 55.0169 23.4689 54.1698 21.6786 54.5842C21.3354 54.667 20.8345 54.8419 20.5747 54.9708C19.9903 55.2655 19.1276 56.0665 18.7287 56.6742C18.571 56.9228 18.3948 57.1253 18.3484 57.1253C18.1907 57.1253 14.842 55.1826 14.842 55.0998C14.842 55.0537 15.2965 54.1146 15.8531 53.0097C19.007 46.7489 21.1684 40.7366 22.2166 35.2583C22.5227 33.6839 22.5042 33.7391 22.6804 33.7391C22.7546 33.7391 25.1665 33.9233 28.0421 34.1535ZM23.3576 57.9171C23.673 58.1197 23.9327 58.5985 23.9327 58.9668C23.9327 59.2246 23.7657 59.5376 23.1257 60.4583C22.4114 61.4987 22.2815 61.6552 21.9198 61.7841C21.4096 61.9775 20.8994 61.8578 20.5562 61.4435C20.0181 60.8174 20.1109 60.3939 21.0571 59.0496C21.6229 58.2486 21.8734 57.9632 22.1424 57.8343C22.532 57.6593 22.9958 57.687 23.3576 57.9171ZM29.3872 59.8967C29.9252 60.1545 30.2591 60.6701 30.3055 61.2962C30.3426 61.7749 30.3426 61.7749 29.3872 63.1284C28.8584 63.8742 28.3111 64.6844 28.1534 64.9238C27.838 65.421 27.5226 65.6051 26.8826 65.6696C25.7323 65.7801 24.749 64.5555 25.1201 63.4875C25.1757 63.3402 25.7045 62.5115 26.2982 61.646C27.2072 60.3386 27.4391 60.0532 27.7638 59.8967C28.2647 59.6481 28.8677 59.6481 29.3872 59.8967ZM35.9269 62.1248C36.6319 62.4194 37.1885 63.4046 37.0586 64.1136C36.9659 64.5923 36.836 64.8133 35.4538 66.7744C33.9603 68.9013 33.7934 69.0486 32.7915 69.0486C31.9381 69.0486 31.4929 68.7816 31.1311 68.0726C30.7229 67.244 30.7693 67.0599 31.7712 65.6235C32.2535 64.9238 32.8286 64.0491 33.042 63.6716C33.5151 62.8338 33.8676 62.4194 34.3128 62.1893C34.7117 61.9775 35.5002 61.9499 35.9269 62.1248ZM40.5558 66.7008C40.7506 66.756 41.0196 66.9402 41.1865 67.1335C41.4556 67.4373 41.4834 67.511 41.4463 67.9437C41.4092 68.3396 41.3164 68.533 40.8526 69.1867C40.4073 69.8036 40.2404 69.9785 39.9806 70.043C39.8044 70.089 39.5539 70.1995 39.4148 70.3008C39.1087 70.5125 38.7747 71.1662 38.7747 71.5622C38.7747 71.82 38.7376 71.8568 38.4593 71.9028C37.912 72.0041 37.4297 71.7463 37.1421 71.1939C36.8453 70.623 36.9287 70.4389 38.3666 68.3949C39.2385 67.1611 39.4797 66.8849 39.7673 66.7652C40.194 66.5903 40.1383 66.5903 40.5558 66.7008ZM47.2903 70.356C49.7671 72.4 49.6558 72.2343 48.7003 72.5565C48.0324 72.7775 46.6595 72.7867 45.8432 72.5657C45.1197 72.3724 43.9416 71.912 43.5242 71.6542L43.2273 71.4701L43.6447 70.8808C44.192 70.1258 44.6002 69.2512 44.6744 68.6987C44.7301 68.312 44.7579 68.2752 44.8878 68.3765C44.9713 68.4409 46.0473 69.334 47.2903 70.356Z" fill="#494949"/>
</svg>
