<svg width="91" height="114" viewBox="0 0 91 114" fill="none" xmlns="http://www.w3.org/2000/svg">
<path d="M7.74871 105.007H6.09637L5.75066 106H4.98016L6.59148 101.734H7.25652L8.87078 106H8.09734L7.74871 105.007ZM6.30437 104.409H7.5407L6.92254 102.64L6.30437 104.409ZM13.1676 102.332H11.8375V106H11.1021V102.332H9.78379V101.734H13.1676V102.332ZM17.939 102.332H16.6089V106H15.8736V102.332H14.5552V101.734H17.939V102.332ZM21.6176 105.007H19.9653L19.6196 106H18.8491L20.4604 101.734H21.1254L22.7397 106H21.9662L21.6176 105.007ZM20.1733 104.409H21.4096L20.7914 102.64L20.1733 104.409ZM27.4964 104.611C27.4535 105.066 27.2855 105.422 26.9925 105.678C26.6996 105.932 26.3099 106.059 25.8236 106.059C25.4837 106.059 25.1839 105.979 24.9242 105.818C24.6664 105.656 24.4671 105.427 24.3265 105.13C24.1859 104.833 24.1127 104.488 24.1068 104.096V103.697C24.1068 103.295 24.1781 102.94 24.3207 102.634C24.4632 102.327 24.6673 102.091 24.933 101.925C25.2005 101.759 25.5091 101.676 25.8587 101.676C26.3295 101.676 26.7084 101.804 26.9955 102.06C27.2826 102.315 27.4496 102.677 27.4964 103.144H26.7582C26.723 102.837 26.6332 102.616 26.4886 102.481C26.3461 102.345 26.1361 102.276 25.8587 102.276C25.5365 102.276 25.2884 102.395 25.1146 102.631C24.9427 102.865 24.8548 103.21 24.8509 103.665V104.043C24.8509 104.504 24.933 104.855 25.097 105.098C25.263 105.34 25.5052 105.461 25.8236 105.461C26.1146 105.461 26.3334 105.396 26.4798 105.265C26.6263 105.134 26.7191 104.916 26.7582 104.611H27.4964ZM30.4661 104.157L29.9827 104.67V106H29.2415V101.734H29.9827V103.735L30.3929 103.229L31.6409 101.734H32.5374L30.9524 103.624L32.6282 106H31.7493L30.4661 104.157ZM39.587 102.332H38.257V106H37.5216V102.332H36.2032V101.734H39.587V102.332ZM44.6162 106H43.878V104.104H41.9707V106H41.2295V101.734H41.9707V103.51H43.878V101.734H44.6162V106ZM49.0683 104.096H47.3164V105.408H49.3642V106H46.5752V101.734H49.3437V102.332H47.3164V103.51H49.0683V104.096ZM54.3631 104.415V106H53.6219V101.734H55.2537C55.7303 101.734 56.1082 101.858 56.3875 102.106C56.6688 102.354 56.8094 102.683 56.8094 103.091C56.8094 103.509 56.6717 103.834 56.3963 104.066C56.1229 104.299 55.7391 104.415 55.2449 104.415H54.3631ZM54.3631 103.82H55.2537C55.5174 103.82 55.7186 103.759 55.8572 103.636C55.9959 103.511 56.0652 103.331 56.0652 103.097C56.0652 102.866 55.9949 102.683 55.8543 102.546C55.7137 102.407 55.5203 102.336 55.2742 102.332H54.3631V103.82ZM60.1071 104.356H59.281V106H58.5398V101.734H60.0398C60.532 101.734 60.9118 101.845 61.1794 102.065C61.447 102.286 61.5808 102.605 61.5808 103.023C61.5808 103.309 61.5114 103.548 61.3728 103.741C61.2361 103.933 61.0446 104.08 60.7986 104.184L61.7566 105.962V106H60.9626L60.1071 104.356ZM59.281 103.762H60.0427C60.2927 103.762 60.488 103.699 60.6286 103.574C60.7693 103.447 60.8396 103.274 60.8396 103.056C60.8396 102.827 60.7741 102.65 60.6433 102.525C60.5144 102.4 60.321 102.336 60.0632 102.332H59.281V103.762ZM66.7682 103.979C66.7682 104.396 66.6959 104.764 66.5514 105.08C66.4069 105.395 66.1998 105.637 65.9303 105.807C65.6627 105.975 65.3541 106.059 65.0045 106.059C64.6588 106.059 64.3502 105.975 64.0788 105.807C63.8092 105.637 63.6002 105.396 63.4518 105.083C63.3053 104.771 63.2311 104.41 63.2291 104.002V103.762C63.2291 103.346 63.3024 102.979 63.4489 102.66C63.5973 102.342 63.8053 102.099 64.0729 101.931C64.3424 101.761 64.651 101.676 64.9987 101.676C65.3463 101.676 65.6539 101.76 65.9215 101.928C66.1911 102.094 66.3991 102.334 66.5455 102.648C66.692 102.961 66.7663 103.325 66.7682 103.741V103.979ZM66.027 103.756C66.027 103.283 65.9371 102.921 65.7575 102.669C65.5797 102.417 65.3268 102.291 64.9987 102.291C64.6784 102.291 64.4274 102.417 64.2457 102.669C64.0661 102.919 63.9743 103.273 63.9704 103.732V103.979C63.9704 104.447 64.0612 104.81 64.2428 105.065C64.4264 105.321 64.6803 105.449 65.0045 105.449C65.3327 105.449 65.5846 105.324 65.7604 105.074C65.9381 104.824 66.027 104.459 66.027 103.979V103.756ZM68.5865 106V101.734H70.0484C70.5308 101.734 70.898 101.831 71.15 102.024C71.4019 102.218 71.5279 102.506 71.5279 102.889C71.5279 103.084 71.4752 103.26 71.3697 103.416C71.2642 103.572 71.1099 103.693 70.9068 103.779C71.1373 103.842 71.315 103.96 71.44 104.134C71.567 104.306 71.6304 104.513 71.6304 104.755C71.6304 105.155 71.5015 105.463 71.2437 105.678C70.9879 105.893 70.6207 106 70.1422 106H68.5865ZM69.3277 104.075V105.408H70.1509C70.3834 105.408 70.565 105.351 70.6959 105.235C70.8267 105.12 70.8922 104.96 70.8922 104.755C70.8922 104.312 70.6656 104.085 70.2125 104.075H69.3277ZM69.3277 103.53H70.0543C70.2847 103.53 70.4644 103.479 70.5933 103.375C70.7242 103.27 70.7896 103.121 70.7896 102.93C70.7896 102.719 70.7291 102.566 70.608 102.473C70.4888 102.379 70.3023 102.332 70.0484 102.332H69.3277V103.53ZM74.1928 105.408H76.1294V106H73.4516V101.734H74.1928V105.408ZM80.2709 104.096H78.5189V105.408H80.5668V106H77.7777V101.734H80.5463V102.332H78.5189V103.51H80.2709V104.096ZM83.2113 101.734L84.4417 105.004L85.6693 101.734H86.6273V106H85.889V104.594L85.9622 102.713L84.7025 106H84.1722L82.9154 102.716L82.9886 104.594V106H82.2503V101.734H83.2113ZM18.4312 113H17.69L15.7886 109.974V113H15.0474V108.734H15.7886L17.6958 111.772V108.734H18.4312V113ZM23.7914 110.979C23.7914 111.396 23.7192 111.764 23.5746 112.08C23.4301 112.395 23.2231 112.637 22.9536 112.807C22.686 112.975 22.3774 113.059 22.0278 113.059C21.6821 113.059 21.3735 112.975 21.102 112.807C20.8325 112.637 20.6235 112.396 20.475 112.083C20.3286 111.771 20.2543 111.41 20.2524 111.002V110.762C20.2524 110.346 20.3256 109.979 20.4721 109.66C20.6205 109.342 20.8286 109.099 21.0961 108.931C21.3657 108.761 21.6743 108.676 22.0219 108.676C22.3696 108.676 22.6772 108.76 22.9448 108.928C23.2143 109.094 23.4223 109.334 23.5688 109.648C23.7153 109.961 23.7895 110.325 23.7914 110.741V110.979ZM23.0502 110.756C23.0502 110.283 22.9604 109.921 22.7807 109.669C22.603 109.417 22.35 109.291 22.0219 109.291C21.7016 109.291 21.4506 109.417 21.269 109.669C21.0893 109.919 20.9975 110.273 20.9936 110.732V110.979C20.9936 111.447 21.0844 111.81 21.2661 112.065C21.4496 112.321 21.7036 112.449 22.0278 112.449C22.3559 112.449 22.6079 112.324 22.7836 112.074C22.9614 111.824 23.0502 111.459 23.0502 110.979V110.756ZM28.4398 109.332H27.1097V113H26.3744V109.332H25.056V108.734H28.4398V109.332ZM35.3869 109.332H34.0568V113H33.3215V109.332H32.0031V108.734H35.3869V109.332ZM40.4161 113H39.6778V111.104H37.7706V113H37.0294V108.734H37.7706V110.51H39.6778V108.734H40.4161V113ZM44.8682 111.096H43.1162V112.408H45.1641V113H42.375V108.734H45.1436V109.332H43.1162V110.51H44.8682V111.096ZM50.163 111.415V113H49.4218V108.734H51.0536C51.5302 108.734 51.9081 108.858 52.1874 109.106C52.4686 109.354 52.6093 109.683 52.6093 110.091C52.6093 110.509 52.4716 110.834 52.1962 111.066C51.9227 111.299 51.5389 111.415 51.0448 111.415H50.163ZM50.163 110.82H51.0536C51.3173 110.82 51.5184 110.759 51.6571 110.636C51.7958 110.511 51.8651 110.331 51.8651 110.097C51.8651 109.866 51.7948 109.683 51.6542 109.546C51.5136 109.407 51.3202 109.336 51.0741 109.332H50.163V110.82ZM56.8328 111.096H55.0809V112.408H57.1287V113H54.3396V108.734H57.1082V109.332H55.0809V110.51H56.8328V111.096ZM60.3796 111.356H59.5534V113H58.8122V108.734H60.3122C60.8044 108.734 61.1843 108.845 61.4519 109.065C61.7195 109.286 61.8532 109.605 61.8532 110.023C61.8532 110.309 61.7839 110.548 61.6452 110.741C61.5085 110.933 61.3171 111.08 61.071 111.184L62.029 112.962V113H61.2351L60.3796 111.356ZM59.5534 110.762H60.3152C60.5652 110.762 60.7605 110.699 60.9011 110.574C61.0417 110.447 61.112 110.274 61.112 110.056C61.112 109.827 61.0466 109.65 60.9157 109.525C60.7868 109.4 60.5935 109.336 60.3357 109.332H59.5534V110.762ZM65.8659 111.901C65.8659 111.714 65.7995 111.569 65.6666 111.468C65.5358 111.366 65.2985 111.264 64.9547 111.16C64.611 111.057 64.3375 110.941 64.1344 110.814C63.7457 110.57 63.5514 110.252 63.5514 109.859C63.5514 109.516 63.6911 109.232 63.9704 109.01C64.2516 108.787 64.6159 108.676 65.0631 108.676C65.36 108.676 65.6246 108.73 65.8571 108.84C66.0895 108.949 66.2721 109.105 66.4049 109.309C66.5377 109.51 66.6041 109.733 66.6041 109.979H65.8659C65.8659 109.757 65.7955 109.583 65.6549 109.458C65.5163 109.331 65.317 109.268 65.0573 109.268C64.8151 109.268 64.6266 109.319 64.4918 109.423C64.359 109.526 64.2926 109.671 64.2926 109.856C64.2926 110.013 64.3649 110.144 64.5094 110.249C64.6539 110.353 64.8922 110.454 65.2243 110.554C65.5563 110.651 65.8229 110.764 66.0241 110.891C66.2252 111.016 66.3727 111.16 66.4664 111.324C66.5602 111.486 66.6071 111.677 66.6071 111.896C66.6071 112.251 66.4704 112.534 66.1969 112.745C65.9254 112.954 65.5563 113.059 65.0895 113.059C64.7809 113.059 64.4967 113.002 64.237 112.889C63.9791 112.773 63.778 112.615 63.6334 112.414C63.4909 112.213 63.4196 111.979 63.4196 111.711H64.1608C64.1608 111.953 64.2409 112.141 64.401 112.273C64.5612 112.406 64.7907 112.473 65.0895 112.473C65.3473 112.473 65.5407 112.421 65.6696 112.317C65.8004 112.212 65.8659 112.073 65.8659 111.901ZM71.7418 110.979C71.7418 111.396 71.6695 111.764 71.525 112.08C71.3804 112.395 71.1734 112.637 70.9039 112.807C70.6363 112.975 70.3277 113.059 69.9781 113.059C69.6324 113.059 69.3238 112.975 69.0523 112.807C68.7828 112.637 68.5738 112.396 68.4254 112.083C68.2789 111.771 68.2046 111.41 68.2027 111.002V110.762C68.2027 110.346 68.2759 109.979 68.4224 109.66C68.5709 109.342 68.7789 109.099 69.0464 108.931C69.316 108.761 69.6246 108.676 69.9722 108.676C70.3199 108.676 70.6275 108.76 70.8951 108.928C71.1646 109.094 71.3726 109.334 71.5191 109.648C71.6656 109.961 71.7398 110.325 71.7418 110.741V110.979ZM71.0005 110.756C71.0005 110.283 70.9107 109.921 70.731 109.669C70.5533 109.417 70.3004 109.291 69.9722 109.291C69.6519 109.291 69.4009 109.417 69.2193 109.669C69.0396 109.919 68.9478 110.273 68.9439 110.732V110.979C68.9439 111.447 69.0347 111.81 69.2164 112.065C69.4 112.321 69.6539 112.449 69.9781 112.449C70.3062 112.449 70.5582 112.324 70.7339 112.074C70.9117 111.824 71.0005 111.459 71.0005 110.979V110.756ZM76.9438 113H76.2026L74.3013 109.974V113H73.56V108.734H74.3013L76.2085 111.772V108.734H76.9438V113Z" fill="white"/>
<path d="M7.30273 93.877H5.90234V97H4.14453V88.4688H7.31445C8.32227 88.4688 9.09961 88.6934 9.64648 89.1426C10.1934 89.5918 10.4668 90.2266 10.4668 91.0469C10.4668 91.6289 10.3398 92.1152 10.0859 92.5059C9.83594 92.8926 9.45508 93.2012 8.94336 93.4316L10.7891 96.918V97H8.90234L7.30273 93.877ZM5.90234 92.4531H7.32031C7.76172 92.4531 8.10352 92.3418 8.3457 92.1191C8.58789 91.8926 8.70898 91.582 8.70898 91.1875C8.70898 90.7852 8.59375 90.4688 8.36328 90.2383C8.13672 90.0078 7.78711 89.8926 7.31445 89.8926H5.90234V92.4531ZM16.625 95.2422H13.543L12.957 97H11.0879L14.2637 88.4688H15.8926L19.0859 97H17.2168L16.625 95.2422ZM14.0176 93.8184H16.1504L15.0781 90.625L14.0176 93.8184ZM21.6406 95.5879H25.373V97H19.8828V88.4688H21.6406V95.5879ZM28.2559 97H26.498V88.4688H28.2559V97ZM36.1367 89.8926H33.5234V97H31.7656V89.8926H29.1875V88.4688H36.1367V89.8926ZM44.0879 97H42.3301V93.3438H38.9023V97H37.1445V88.4688H38.9023V91.9258H42.3301V88.4688H44.0879V97ZM50.9141 88.4688L53.1055 94.6562L55.2852 88.4688H57.5938V97H55.8301V94.668L56.0059 90.6426L53.7031 97H52.4961L50.1992 90.6484L50.375 94.668V97H48.6172V88.4688H50.9141ZM60.998 97H59.2402V88.4688H60.998V97ZM64.3906 95.5879H68.123V97H62.6328V88.4688H64.3906V95.5879ZM71.0059 97H69.248V88.4688H71.0059V97ZM78.8867 89.8926H76.2734V97H74.5156V89.8926H71.9375V88.4688H78.8867V89.8926ZM86.8379 97H85.0801V93.3438H81.6523V97H79.8945V88.4688H81.6523V91.9258H85.0801V88.4688H86.8379V97Z" fill="white"/>
<path d="M37.7914 4.16573C37.3647 4.36828 37.0401 4.76419 36.9102 5.24296C36.836 5.50076 37.0493 6.99232 38.0326 12.9494C39.3869 21.1713 39.3035 20.8675 40.1012 21.2266C41.2515 21.7422 42.4295 20.9964 42.411 19.7534C42.4017 19.5693 41.873 16.2087 41.2329 12.2864C40.3609 6.98312 40.0085 5.06803 39.8786 4.82864C39.4704 4.11048 38.5428 3.81585 37.7914 4.16573Z" fill="white"/>
<path d="M52.7169 4.17494C52.485 4.28542 52.2346 4.49719 52.0954 4.70895C51.8728 5.04962 51.78 5.56522 50.8153 12.4338C50.0917 17.5806 49.8042 19.8916 49.8506 20.1402C49.9248 20.5545 50.3886 21.1069 50.806 21.2726C51.6316 21.6225 52.5499 21.245 52.9024 20.4072C53.0601 20.0389 55.0082 6.34783 55.0082 5.61125C55.0082 4.99437 54.6742 4.44194 54.1455 4.19335C53.6538 3.95396 53.2271 3.95396 52.7169 4.17494Z" fill="white"/>
<path d="M66.3623 11.2645C66.149 11.3565 65.8707 11.5775 65.7408 11.7432C65.1749 12.4982 59.9617 20.6557 59.8411 20.9872C59.4979 21.9355 60.342 23.0588 61.3995 23.0588C62.021 23.0588 62.4663 22.7458 63.0136 21.9263C64.6184 19.4956 68.468 13.4742 68.5515 13.2624C68.7741 12.6731 68.5979 11.9734 68.1248 11.5315C67.6146 11.0619 67.0116 10.9698 66.3623 11.2645Z" fill="white"/>
<path d="M24.5357 12.7376C24.0904 12.9401 23.8956 13.1427 23.7008 13.6031C23.5153 14.045 23.5246 14.3673 23.7379 14.8184C24.0069 15.3985 28.7378 22.2394 29.1274 22.6169C29.5077 22.9852 29.9437 23.1141 30.4632 23.022C31.3908 22.8471 32.0494 21.7514 31.734 20.9228C31.6413 20.6742 26.7063 13.465 26.4002 13.1243C26.1497 12.8481 25.5468 12.5627 25.185 12.5627C25.0366 12.5627 24.7397 12.6455 24.5357 12.7376Z" fill="white"/>
<path d="M11.0573 25.2041C10.6584 25.3514 10.2781 25.7289 10.0833 26.1524C9.62875 27.2021 0 54.1606 0 54.4C0 54.7407 0.278287 55.3668 0.51947 55.5785C0.621509 55.6706 0.844139 55.7995 1.02039 55.8732C1.79032 56.1862 11.3077 58.9668 11.6231 58.9668C12.189 58.9668 12.9496 58.488 13.0981 58.0276C13.1166 57.9724 13.9979 58.4235 15.0554 59.022L16.9755 60.1177V60.7253C16.9755 61.8762 17.4393 62.9443 18.3113 63.8005C19.2111 64.6844 20.2779 65.1356 21.4467 65.1356C21.9012 65.1356 21.9847 65.1632 21.9847 65.3013C21.9847 65.7156 22.6526 66.8297 23.2741 67.4466C24.3409 68.5054 25.5561 68.9657 27.0866 68.8921L27.8844 68.8552L28.1905 69.509C28.6265 70.402 29.6005 71.3688 30.5189 71.8015C31.4094 72.2251 32.0309 72.3448 33.1255 72.2987L34.0346 72.2619L34.2479 72.7315C34.5262 73.3207 35.528 74.3427 36.1588 74.6558C37.6523 75.4107 39.4333 75.3095 40.7877 74.4072L41.2236 74.1125L42.3461 74.6742C44.8599 75.9263 47.1512 76.2762 49.2662 75.733C50.0361 75.5396 51.2142 74.9872 51.7986 74.5453L52.1603 74.2783L52.7262 74.5361C54.7484 75.4752 56.6872 75.3463 58.2734 74.1586C58.9969 73.6153 59.6648 72.7775 59.8967 72.1238C60.0173 71.7923 60.1008 71.6726 60.2029 71.7095C60.2771 71.7371 60.6574 71.866 61.0377 72.0041C62.8466 72.6394 64.5812 72.2527 66.0191 70.8992C66.9931 69.9969 67.5033 69.021 67.6702 67.7688L67.7352 67.3269L68.0877 67.3821C68.2825 67.4097 68.7741 67.3913 69.173 67.3453C70.954 67.1059 72.4939 65.8077 73.0226 64.0951C73.2731 63.2757 73.2267 62.0419 72.9206 61.2225C72.8093 60.9187 72.7072 60.5964 72.698 60.5136C72.6887 60.4123 73.403 59.8322 74.9057 58.7458L77.1227 57.1345L77.6608 57.8711C78.2637 58.6813 78.6997 58.9668 79.3119 58.9668C79.618 58.9668 80.6663 58.5156 84.3953 56.7939C90.3228 54.0501 90.2857 54.0685 90.6011 53.6542C90.8237 53.3688 90.8609 53.2307 90.8609 52.7611C90.8609 52.1995 90.8423 52.1627 84.1077 38.9872C80.388 31.7228 77.2619 25.6829 77.1598 25.5724C76.863 25.2501 76.2322 25.0476 75.7684 25.1212C75.4716 25.1673 74.4326 25.7842 71.5199 27.6348C69.4049 28.9883 67.5404 30.1668 67.3827 30.2588C67.1508 30.3877 66.455 30.4706 63.5145 30.71L59.9246 30.9954L59.0248 30.4154C57.3458 29.3381 54.2939 27.8742 52.8746 27.4691C52.0119 27.2205 50.3422 27.0179 49.1363 27.0179C46.9007 27.0179 43.9138 27.5243 42.8192 28.086C41.9936 28.5003 39.7951 29.8629 38.3202 30.8665L37.1699 31.6491L36.4649 31.5847C36.0753 31.557 35.259 31.4926 34.6468 31.4374C25.519 30.71 23.0793 30.5166 22.9494 30.5166C22.8845 30.5166 22.7175 30.3509 22.5877 30.1484C22.4392 29.9182 22.1888 29.6972 21.9105 29.5591C21.5209 29.3657 14.4617 26.2169 12.7177 25.4527C11.92 25.112 11.484 25.0384 11.0573 25.2041ZM15.9923 30.443C17.8382 31.2532 19.3688 31.953 19.4059 31.9806C19.4894 32.0542 19.1091 34.3192 18.7287 35.9949C17.5043 41.4363 14.8606 48.1299 11.5304 54.1974C10.8532 55.4312 10.8439 55.4496 10.5935 55.376C10.408 55.3115 5.45443 53.8476 3.88675 53.3872C3.76616 53.3504 4.49898 51.242 8.08889 41.2614C10.4729 34.623 12.4487 29.1264 12.4766 29.0619C12.4951 29.0067 12.5415 28.9514 12.5786 28.9514C12.6157 28.9514 14.1463 29.6235 15.9923 30.443ZM81.5939 41.2706C84.5716 47.1171 87.0112 51.9233 87.0112 51.9509C87.0112 52.0154 80.1653 55.2102 79.9242 55.2655C79.7943 55.2931 78.2915 53.111 77.299 51.4629C74.2471 46.3806 71.492 39.9264 69.9336 34.2087C69.609 33.0302 69.5719 32.7816 69.6739 32.6803C69.7481 32.6159 71.0561 31.7688 72.5866 30.8021L75.3695 29.0435L75.7777 29.8445C76.0003 30.2957 78.6162 35.4333 81.5939 41.2706ZM51.7615 30.5443C53.2178 30.9218 55.7224 32.1371 57.6612 33.4261C58.227 33.8036 58.8114 34.1535 58.9691 34.1995C59.1825 34.2732 60.1379 34.2271 62.8002 34.0154C64.7482 33.8588 66.3623 33.7391 66.3808 33.7668C66.3994 33.7852 66.5849 34.4205 66.7983 35.1755C68.4958 41.3719 71.5941 48.5074 74.8593 53.7279L75.3046 54.4368L72.9855 56.1125C71.7147 57.024 70.6201 57.7974 70.5459 57.8251C70.4809 57.8527 69.813 57.3003 69.006 56.5545C60.1657 48.3877 51.9655 41.0128 50.0917 39.5397C49.0714 38.7386 47.9675 38.398 46.4276 38.4072C45.3794 38.4072 44.6373 38.5269 43.5242 38.8583C42.5502 39.153 42.2162 39.4384 41.6967 40.4512C40.9175 41.9796 39.7116 43.554 38.7376 44.3182C37.6801 45.1468 36.7618 45.4691 35.4817 45.4691C33.7841 45.4599 33.3574 44.6404 34.183 42.9739C34.3963 42.5412 34.7488 42.0532 35.1941 41.5928C35.5651 41.1969 35.9176 40.7918 35.964 40.6905C36.0197 40.5893 36.1403 40.0092 36.2238 39.4015C36.5206 37.3852 36.9751 36.1146 37.643 35.4609C38.5428 34.5954 41.6133 32.487 43.8303 31.2256C44.4703 30.8573 44.7208 30.7744 45.6577 30.6087C47.3552 30.3141 48.0881 30.2496 49.5352 30.2865C50.5741 30.3141 51.0843 30.3693 51.7615 30.5443ZM28.0421 34.1535C30.9085 34.3744 33.4687 34.5862 33.7377 34.6138L34.2108 34.6691L33.9511 35.2399C33.645 35.9212 33.2739 37.2471 33.0791 38.3611C32.9492 39.1345 32.9214 39.1898 32.3463 39.8987C31.2424 41.2338 30.6487 42.5964 30.5467 43.9867C30.4539 45.3862 30.8621 46.5003 31.799 47.3842C32.8194 48.3509 33.8119 48.7008 35.528 48.6916C38.0697 48.6824 39.8508 47.8813 41.8173 45.8558C42.6522 44.9903 43.719 43.5448 44.3868 42.3663C44.526 42.1085 44.7393 41.8875 44.8785 41.823C45.0176 41.7678 45.6113 41.7125 46.1957 41.6849C47.2347 41.6389 47.2718 41.6481 47.7541 41.8967C48.2643 42.1729 50.0546 43.7013 53.6631 46.9514C58.1899 51.021 68.8112 60.7437 69.2379 61.2041C69.6182 61.6276 69.9429 62.355 69.9429 62.7969C69.9429 63.2665 69.6461 63.7361 69.2008 63.9662C68.9504 64.0951 68.7277 64.1228 68.2454 64.0951C67.058 64.0215 66.52 63.6624 62.9857 60.6517C53.5518 52.5954 51.3997 50.7816 51.1307 50.6435C50.7782 50.4593 50.0732 50.4501 49.7392 50.6251C49.1827 50.9105 48.7931 51.509 48.7931 52.0614C48.7931 52.8348 48.6539 52.7059 56.5295 59.4179C63.5887 65.4302 63.9876 65.7801 64.1916 66.2496C64.6369 67.29 64.3864 68.2107 63.4959 68.8092C63.0785 69.0854 62.9857 69.113 62.5497 69.067C61.9561 69.0026 61.2047 68.6159 60.3327 67.9345C59.637 67.3913 53.6538 62.2997 48.2921 57.6962C44.6744 54.5842 44.5724 54.5197 43.7839 54.7315C43.3572 54.842 42.9026 55.201 42.7171 55.5693C42.5223 55.9376 42.5409 56.7386 42.7542 57.0793C42.9026 57.3279 47.1512 61.02 54.3124 67.1243C56.0656 68.6251 56.381 68.9381 56.6129 69.3893C57.1139 70.3468 57.0118 71.0834 56.3068 71.5622C55.5833 72.0501 54.702 72.0133 53.8208 71.4609C53.5703 71.2951 51.7893 69.8772 49.8877 68.2936C47.9768 66.7192 46.2514 65.3197 46.0473 65.1816C45.7319 64.9698 45.6113 64.9422 45.1197 64.9698C44.7393 64.9882 44.4703 65.0619 44.2941 65.1908L44.0344 65.3841L43.4963 64.8133C42.8284 64.1136 42.0863 63.6992 41.0752 63.4967L40.3239 63.3402L40.2033 62.7693C39.8322 60.9739 38.3851 59.4639 36.4928 58.9115C35.5559 58.6445 34.2015 58.7182 33.1811 59.1141C33.0977 59.1417 32.9585 59.022 32.8101 58.755C32.2442 57.7974 30.8343 56.8123 29.684 56.5637C29.0625 56.4348 27.5319 56.4992 27.0217 56.6834L26.6228 56.8215L26.4559 56.5361C25.5561 55.0169 23.4689 54.1698 21.6786 54.5841C21.3354 54.667 20.8345 54.842 20.5747 54.9709C19.9903 55.2655 19.1276 56.0665 18.7287 56.6742C18.571 56.9228 18.3948 57.1253 18.3484 57.1253C18.1907 57.1253 14.842 55.1826 14.842 55.0998C14.842 55.0537 15.2965 54.1146 15.8531 53.0097C19.007 46.7489 21.1684 40.7366 22.2166 35.2583C22.5227 33.6839 22.5042 33.7391 22.6804 33.7391C22.7546 33.7391 25.1665 33.9233 28.0421 34.1535ZM23.3576 57.9171C23.673 58.1197 23.9327 58.5985 23.9327 58.9668C23.9327 59.2246 23.7657 59.5376 23.1257 60.4583C22.4114 61.4987 22.2815 61.6552 21.9198 61.7841C21.4096 61.9775 20.8994 61.8578 20.5562 61.4435C20.0181 60.8174 20.1109 60.3939 21.0571 59.0496C21.6229 58.2486 21.8734 57.9632 22.1424 57.8343C22.532 57.6593 22.9958 57.687 23.3576 57.9171ZM29.3872 59.8967C29.9252 60.1545 30.2591 60.6701 30.3055 61.2962C30.3426 61.7749 30.3426 61.7749 29.3872 63.1284C28.8584 63.8742 28.3111 64.6844 28.1534 64.9238C27.838 65.421 27.5226 65.6051 26.8826 65.6696C25.7323 65.7801 24.749 64.5555 25.1201 63.4875C25.1757 63.3402 25.7045 62.5115 26.2982 61.646C27.2072 60.3386 27.4391 60.0532 27.7638 59.8967C28.2647 59.6481 28.8677 59.6481 29.3872 59.8967ZM35.9269 62.1248C36.6319 62.4194 37.1885 63.4046 37.0586 64.1136C36.9659 64.5923 36.836 64.8133 35.4538 66.7744C33.9603 68.9013 33.7934 69.0486 32.7915 69.0486C31.9381 69.0486 31.4929 68.7816 31.1311 68.0726C30.7229 67.244 30.7693 67.0599 31.7712 65.6235C32.2535 64.9238 32.8286 64.0491 33.042 63.6716C33.5151 62.8338 33.8676 62.4194 34.3128 62.1893C34.7117 61.9775 35.5002 61.9499 35.9269 62.1248ZM40.5558 66.7008C40.7506 66.756 41.0196 66.9402 41.1865 67.1335C41.4556 67.4373 41.4834 67.511 41.4463 67.9437C41.4092 68.3396 41.3164 68.533 40.8526 69.1867C40.4073 69.8036 40.2404 69.9785 39.9806 70.043C39.8044 70.089 39.5539 70.1995 39.4148 70.3008C39.1087 70.5125 38.7747 71.1662 38.7747 71.5622C38.7747 71.82 38.7376 71.8568 38.4593 71.9028C37.912 72.0041 37.4297 71.7463 37.1421 71.1939C36.8453 70.623 36.9287 70.4389 38.3666 68.3949C39.2385 67.1611 39.4797 66.8849 39.7673 66.7652C40.194 66.5903 40.1383 66.5903 40.5558 66.7008ZM47.2903 70.356C49.7671 72.4 49.6558 72.2343 48.7003 72.5565C48.0324 72.7775 46.6595 72.7867 45.8432 72.5657C45.1197 72.3724 43.9416 71.912 43.5242 71.6542L43.2273 71.4701L43.6447 70.8808C44.192 70.1258 44.6002 69.2512 44.6744 68.6987C44.7301 68.312 44.7579 68.2752 44.8878 68.3765C44.9713 68.4409 46.0473 69.334 47.2903 70.356Z" fill="white"/>
</svg>
