<svg width="155" height="64" viewBox="0 0 155 64" fill="none" xmlns="http://www.w3.org/2000/svg">
<path d="M28.5021 9.09857C28.2255 9.22798 28.015 9.48092 27.9308 9.7868C27.8827 9.95151 28.021 10.9044 28.6585 14.7103C29.5366 19.9633 29.4825 19.7692 29.9997 19.9986C30.7455 20.328 31.5093 19.8515 31.4972 19.0574C31.4912 18.9397 31.1484 16.7927 30.7334 14.2868C30.1681 10.8986 29.9395 9.67504 29.8553 9.5221C29.5907 9.06327 28.9893 8.87504 28.5021 9.09857Z" fill="white"/>
<path d="M38.1791 9.10445C38.0287 9.17504 37.8664 9.31033 37.7761 9.44563C37.6318 9.66327 37.5717 9.99268 36.9462 14.3809C36.4771 17.6692 36.2906 19.1456 36.3207 19.3044C36.3688 19.5692 36.6695 19.9221 36.9402 20.028C37.4754 20.2515 38.0708 20.0103 38.2994 19.475C38.4016 19.2397 39.6646 10.4927 39.6646 10.0221C39.6646 9.62798 39.4481 9.27504 39.1053 9.11621C38.7865 8.96327 38.5099 8.96327 38.1791 9.10445Z" fill="white"/>
<path d="M47.0261 13.6339C46.8878 13.6927 46.7074 13.8339 46.6232 13.9397C46.2563 14.4221 42.8762 19.6339 42.7981 19.8456C42.5755 20.4515 43.1228 21.1691 43.8085 21.1691C44.2114 21.1691 44.5001 20.9691 44.855 20.4456C45.8954 18.8927 48.3914 15.0456 48.4455 14.9103C48.5898 14.5339 48.4756 14.0868 48.1688 13.8044C47.838 13.5044 47.4471 13.4456 47.0261 13.6339Z" fill="white"/>
<path d="M19.9077 14.575C19.6191 14.7044 19.4928 14.8339 19.3665 15.128C19.2462 15.4103 19.2522 15.6162 19.3905 15.9044C19.5649 16.275 22.6322 20.6456 22.8848 20.8868C23.1314 21.1221 23.4141 21.2044 23.7509 21.1456C24.3523 21.0339 24.7793 20.3339 24.5748 19.8044C24.5147 19.6456 21.3151 15.0397 21.1166 14.8221C20.9542 14.6456 20.5633 14.4633 20.3287 14.4633C20.2325 14.4633 20.0401 14.5162 19.9077 14.575Z" fill="white"/>
<path d="M11.169 22.5398C10.9104 22.6339 10.6638 22.8751 10.5375 23.1456C10.2428 23.8162 4 41.0397 4 41.1927C4 41.4103 4.18043 41.8103 4.3368 41.9456C4.40296 42.0045 4.5473 42.0868 4.66157 42.1339C5.16075 42.3339 11.3314 44.1103 11.5359 44.1103C11.9028 44.1103 12.3959 43.8045 12.4922 43.5103C12.5042 43.475 13.0755 43.7633 13.7612 44.1456L15.0061 44.8456V45.2339C15.0061 45.9692 15.3068 46.6515 15.8722 47.1986C16.4556 47.7633 17.1472 48.0515 17.905 48.0515C18.1997 48.0515 18.2538 48.0692 18.2538 48.1574C18.2538 48.4221 18.6869 49.1339 19.0898 49.528C19.7814 50.2045 20.5693 50.4986 21.5617 50.4515L22.0789 50.428L22.2774 50.8456C22.56 51.4162 23.1915 52.0339 23.787 52.3103C24.3643 52.5809 24.7673 52.6574 25.477 52.628L26.0664 52.6045L26.2047 52.9045C26.3851 53.2809 27.0347 53.9339 27.4436 54.1339C28.4119 54.6162 29.5667 54.5515 30.4448 53.975L30.7274 53.7868L31.4551 54.1456C33.085 54.9456 34.5705 55.1692 35.9418 54.8221C36.441 54.6986 37.2048 54.3456 37.5837 54.0633L37.8182 53.8927L38.1851 54.0574C39.4962 54.6574 40.7532 54.575 41.7817 53.8162C42.2508 53.4692 42.6838 52.9339 42.8341 52.5162C42.9123 52.3045 42.9665 52.228 43.0326 52.2515C43.0807 52.2692 43.3273 52.3515 43.5739 52.4397C44.7467 52.8456 45.8714 52.5986 46.8036 51.7339C47.4351 51.1574 47.7659 50.5339 47.8741 49.7339L47.9162 49.4515L48.1448 49.4868C48.2711 49.5045 48.5898 49.4927 48.8484 49.4633C50.0032 49.3103 51.0015 48.4809 51.3443 47.3868C51.5067 46.8633 51.4767 46.075 51.2782 45.5515C51.206 45.3574 51.1399 45.1515 51.1338 45.0986C51.1278 45.0339 51.5909 44.6633 52.5652 43.9692L54.0027 42.9397L54.3515 43.4103C54.7424 43.928 55.0251 44.1103 55.422 44.1103C55.6205 44.1103 56.3001 43.8221 58.7178 42.7221C62.561 40.9692 62.5369 40.9809 62.7414 40.7162C62.8857 40.5339 62.9098 40.4456 62.9098 40.1456C62.9098 39.7868 62.8978 39.7633 58.5314 31.3456C56.1197 26.7045 54.0929 22.8456 54.0267 22.7751C53.8343 22.5692 53.4253 22.4398 53.1246 22.4868C52.9321 22.5162 52.2585 22.9103 50.37 24.0927C48.9988 24.9574 47.7899 25.7103 47.6877 25.7692C47.5373 25.8515 47.0862 25.9045 45.1797 26.0574L42.8522 26.2398L42.2688 25.8692C41.1802 25.1809 39.2015 24.2456 38.2813 23.9868C37.722 23.828 36.6394 23.6986 35.8576 23.6986C34.4082 23.6986 32.4716 24.0221 31.7619 24.3809C31.2266 24.6456 29.8012 25.5162 28.845 26.1574L28.0992 26.6574L27.6421 26.6162C27.3895 26.5986 26.8602 26.5574 26.4633 26.5221C20.5453 26.0574 18.9635 25.9339 18.8793 25.9339C18.8372 25.9339 18.729 25.828 18.6448 25.6986C18.5485 25.5515 18.3861 25.4103 18.2057 25.3221C17.9531 25.1986 13.3762 23.1868 12.2456 22.6986C11.7283 22.4809 11.4457 22.4339 11.169 22.5398ZM14.3686 25.8868C15.5654 26.4045 16.5578 26.8515 16.5819 26.8692C16.636 26.9162 16.3894 28.3633 16.1428 29.4339C15.3489 32.9103 13.6349 37.1868 11.4757 41.0633C11.0367 41.8515 11.0307 41.8633 10.8683 41.8162C10.748 41.775 7.53639 40.8397 6.51998 40.5456C6.44179 40.5221 6.91692 39.175 9.24444 32.7986C10.7901 28.5574 12.0712 25.0456 12.0892 25.0045C12.1012 24.9692 12.1313 24.9339 12.1554 24.9339C12.1794 24.9339 13.1718 25.3633 14.3686 25.8868ZM56.9015 32.8045C58.8321 36.5398 60.4139 39.6103 60.4139 39.628C60.4139 39.6692 55.9753 41.7103 55.819 41.7456C55.7348 41.7633 54.7604 40.3692 54.1169 39.3162C52.1382 36.0692 50.352 31.9456 49.3416 28.2927C49.1311 27.5398 49.107 27.3809 49.1732 27.3162C49.2213 27.275 50.0693 26.7339 51.0617 26.1162L52.866 24.9927L53.1306 25.5045C53.2749 25.7927 54.9709 29.075 56.9015 32.8045ZM37.5596 25.9515C38.5039 26.1927 40.1277 26.9692 41.3847 27.7927C41.7516 28.0339 42.1305 28.2574 42.2327 28.2868C42.3711 28.3339 42.9905 28.3045 44.7166 28.1692C45.9796 28.0692 47.0261 27.9927 47.0381 28.0103C47.0502 28.0221 47.1704 28.428 47.3088 28.9103C48.4094 32.8692 50.4181 37.428 52.5352 40.7633L52.8239 41.2162L51.3203 42.2868C50.4963 42.8692 49.7866 43.3633 49.7385 43.3809C49.6964 43.3986 49.2634 43.0456 48.7402 42.5692C43.0086 37.3515 37.6919 32.6398 36.4771 31.6986C35.8155 31.1868 35.0998 30.9692 34.1014 30.975C33.4218 30.975 32.9407 31.0515 32.219 31.2633C31.5875 31.4515 31.3709 31.6339 31.0341 32.2809C30.529 33.2574 29.7471 34.2633 29.1156 34.7515C28.43 35.2809 27.8346 35.4868 27.0046 35.4868C25.904 35.4809 25.6273 34.9574 26.1626 33.8927C26.3009 33.6162 26.5295 33.3045 26.8181 33.0103C27.0587 32.7574 27.2873 32.4986 27.3173 32.4339C27.3534 32.3692 27.4316 31.9986 27.4857 31.6103C27.6782 30.3221 27.9729 29.5103 28.4059 29.0927C28.9893 28.5398 30.98 27.1927 32.4174 26.3868C32.8324 26.1515 32.9948 26.0986 33.6022 25.9927C34.7029 25.8045 35.178 25.7633 36.1162 25.7868C36.7898 25.8045 37.1206 25.8398 37.5596 25.9515ZM22.1811 28.2574C24.0396 28.3986 25.6995 28.5339 25.8739 28.5515L26.1806 28.5868L26.0122 28.9515C25.8138 29.3868 25.5732 30.2339 25.4469 30.9456C25.3627 31.4398 25.3446 31.475 24.9718 31.928C24.2561 32.7809 23.8712 33.6515 23.805 34.5398C23.7449 35.4339 24.0095 36.1456 24.6169 36.7103C25.2785 37.328 25.922 37.5515 27.0347 37.5456C28.6826 37.5398 29.8373 37.028 31.1123 35.7339C31.6536 35.1809 32.3453 34.2574 32.7783 33.5045C32.8685 33.3398 33.0068 33.1986 33.097 33.1574C33.1873 33.1221 33.5722 33.0868 33.9511 33.0692C34.6247 33.0398 34.6487 33.0456 34.9615 33.2045C35.2923 33.3809 36.453 34.3574 38.7926 36.4339C41.7275 39.0339 48.6139 45.2456 48.8905 45.5397C49.1371 45.8103 49.3476 46.275 49.3476 46.5574C49.3476 46.8574 49.1551 47.1574 48.8665 47.3045C48.7041 47.3868 48.5597 47.4045 48.247 47.3868C47.4772 47.3397 47.1283 47.1103 44.8369 45.1868C38.7204 40.0397 37.3251 38.8809 37.1507 38.7927C36.9221 38.675 36.465 38.6692 36.2485 38.7809C35.8877 38.9633 35.6351 39.3456 35.6351 39.6986C35.6351 40.1927 35.5449 40.1103 40.651 44.3986C45.2278 48.2397 45.4864 48.4633 45.6188 48.7633C45.9074 49.428 45.7451 50.0162 45.1677 50.3986C44.897 50.575 44.8369 50.5927 44.5542 50.5633C44.1693 50.5221 43.6822 50.275 43.1168 49.8397C42.6657 49.4927 38.7865 46.2397 35.3103 43.2986C32.9647 41.3103 32.8986 41.2692 32.3874 41.4045C32.1107 41.475 31.816 41.7045 31.6957 41.9397C31.5694 42.175 31.5814 42.6868 31.7198 42.9045C31.816 43.0633 34.5705 45.4221 39.2136 49.3221C40.3503 50.2809 40.5547 50.4809 40.7051 50.7692C41.0299 51.3809 40.9637 51.8515 40.5066 52.1574C40.0375 52.4692 39.4662 52.4456 38.8948 52.0927C38.7324 51.9868 37.5777 51.0809 36.3448 50.0692C35.1058 49.0633 33.9872 48.1692 33.8548 48.0809C33.6504 47.9456 33.5722 47.928 33.2534 47.9456C33.0068 47.9574 32.8324 48.0045 32.7181 48.0868L32.5497 48.2103L32.2009 47.8456C31.7679 47.3986 31.2867 47.1339 30.6312 47.0045L30.144 46.9045L30.0659 46.5397C29.8253 45.3927 28.8871 44.428 27.6601 44.075C27.0527 43.9045 26.1746 43.9515 25.513 44.2045C25.4589 44.2221 25.3687 44.1456 25.2725 43.975C24.9056 43.3633 23.9914 42.7339 23.2457 42.575C22.8427 42.4927 21.8504 42.5339 21.5196 42.6515L21.261 42.7397L21.1527 42.5574C20.5693 41.5868 19.2161 41.0456 18.0554 41.3103C17.8328 41.3633 17.5081 41.475 17.3397 41.5574C16.9608 41.7456 16.4014 42.2574 16.1428 42.6456C16.0406 42.8045 15.9263 42.9339 15.8962 42.9339C15.794 42.9339 13.6228 41.6927 13.6228 41.6397C13.6228 41.6103 13.9175 41.0103 14.2784 40.3045C16.3232 36.3045 17.7246 32.4633 18.4042 28.9633C18.6027 27.9574 18.5906 27.9927 18.7049 27.9927C18.753 27.9927 20.3167 28.1103 22.1811 28.2574ZM19.1439 43.4397C19.3484 43.5692 19.5168 43.875 19.5168 44.1103C19.5168 44.275 19.4086 44.475 18.9936 45.0633C18.5305 45.728 18.4463 45.828 18.2117 45.9103C17.8809 46.0339 17.5502 45.9574 17.3276 45.6927C16.9788 45.2927 17.0389 45.0221 17.6524 44.1633C18.0193 43.6515 18.1817 43.4692 18.3561 43.3868C18.6087 43.275 18.9094 43.2927 19.1439 43.4397ZM23.0532 44.7045C23.402 44.8692 23.6186 45.1986 23.6486 45.5986C23.6727 45.9045 23.6727 45.9045 23.0532 46.7692C22.7104 47.2456 22.3556 47.7633 22.2533 47.9162C22.0488 48.2339 21.8443 48.3515 21.4294 48.3927C20.6836 48.4633 20.0461 47.6809 20.2866 46.9986C20.3227 46.9045 20.6655 46.375 21.0505 45.8221C21.6399 44.9868 21.7902 44.8045 22.0007 44.7045C22.3255 44.5456 22.7164 44.5456 23.0532 44.7045ZM27.2933 46.128C27.7504 46.3162 28.1112 46.9456 28.027 47.3986C27.9669 47.7045 27.8827 47.8456 26.9865 49.0986C26.0182 50.4574 25.91 50.5515 25.2604 50.5515C24.7071 50.5515 24.4185 50.3809 24.1839 49.928C23.9193 49.3986 23.9493 49.2809 24.5989 48.3633C24.9116 47.9162 25.2845 47.3574 25.4228 47.1162C25.7296 46.5809 25.9581 46.3162 26.2468 46.1692C26.5054 46.0339 27.0166 46.0162 27.2933 46.128ZM30.2944 49.0515C30.4207 49.0868 30.5951 49.2045 30.7034 49.328C30.8778 49.5221 30.8958 49.5692 30.8718 49.8456C30.8477 50.0986 30.7876 50.2221 30.4869 50.6397C30.1982 51.0339 30.0899 51.1456 29.9215 51.1868C29.8072 51.2162 29.6449 51.2868 29.5546 51.3515C29.3562 51.4868 29.1397 51.9045 29.1397 52.1574C29.1397 52.3221 29.1156 52.3456 28.9352 52.375C28.5803 52.4397 28.2676 52.275 28.0811 51.9221C27.8887 51.5574 27.9428 51.4397 28.875 50.1339C29.4404 49.3456 29.5967 49.1692 29.7832 49.0927C30.0598 48.9809 30.0238 48.9809 30.2944 49.0515ZM34.6608 51.3868C36.2666 52.6927 36.1944 52.5868 35.5749 52.7927C35.1419 52.9339 34.2518 52.9397 33.7225 52.7986C33.2534 52.675 32.4896 52.3809 32.219 52.2162L32.0265 52.0986L32.2971 51.7221C32.652 51.2397 32.9166 50.6809 32.9647 50.328C33.0008 50.0809 33.0189 50.0574 33.1031 50.1221C33.1572 50.1633 33.8548 50.7339 34.6608 51.3868Z" fill="white"/>
<path d="M70.3027 24.877H68.9023V28H67.1445V19.4688H70.3145C71.3223 19.4688 72.0996 19.6934 72.6465 20.1426C73.1934 20.5918 73.4668 21.2266 73.4668 22.0469C73.4668 22.6289 73.3398 23.1152 73.0859 23.5059C72.8359 23.8926 72.4551 24.2012 71.9434 24.4316L73.7891 27.918V28H71.9023L70.3027 24.877ZM68.9023 23.4531H70.3203C70.7617 23.4531 71.1035 23.3418 71.3457 23.1191C71.5879 22.8926 71.709 22.582 71.709 22.1875C71.709 21.7852 71.5938 21.4688 71.3633 21.2383C71.1367 21.0078 70.7871 20.8926 70.3145 20.8926H68.9023V23.4531ZM79.625 26.2422H76.543L75.957 28H74.0879L77.2637 19.4688H78.8926L82.0859 28H80.2168L79.625 26.2422ZM77.0176 24.8184H79.1504L78.0781 21.625L77.0176 24.8184ZM84.6406 26.5879H88.373V28H82.8828V19.4688H84.6406V26.5879ZM91.2559 28H89.498V19.4688H91.2559V28ZM99.1367 20.8926H96.5234V28H94.7656V20.8926H92.1875V19.4688H99.1367V20.8926ZM107.088 28H105.33V24.3438H101.902V28H100.145V19.4688H101.902V22.9258H105.33V19.4688H107.088V28ZM113.914 19.4688L116.105 25.6562L118.285 19.4688H120.594V28H118.83V25.668L119.006 21.6426L116.703 28H115.496L113.199 21.6484L113.375 25.668V28H111.617V19.4688H113.914ZM123.998 28H122.24V19.4688H123.998V28ZM127.391 26.5879H131.123V28H125.633V19.4688H127.391V26.5879ZM134.006 28H132.248V19.4688H134.006V28ZM141.887 20.8926H139.273V28H137.516V20.8926H134.938V19.4688H141.887V20.8926ZM149.838 28H148.08V24.3438H144.652V28H142.895V19.4688H144.652V22.9258H148.08V19.4688H149.838V28Z" fill="white"/>
<path d="M68.8213 37.0068H67.1689L66.8232 38H66.0527L67.6641 33.7344H68.3291L69.9434 38H69.1699L68.8213 37.0068ZM67.377 36.4092H68.6133L67.9951 34.6396L67.377 36.4092ZM74.2402 34.332H72.9101V38H72.1747V34.332H70.8564V33.7344H74.2402V34.332ZM79.0116 34.332H77.6815V38H76.9461V34.332H75.6278V33.7344H79.0116V34.332ZM82.6902 37.0068H81.0379L80.6921 38H79.9216L81.533 33.7344H82.198L83.8123 38H83.0388L82.6902 37.0068ZM81.2459 36.4092H82.4822L81.864 34.6396L81.2459 36.4092ZM88.569 36.6113C88.5261 37.0664 88.3581 37.4219 88.0651 37.6777C87.7721 37.9316 87.3825 38.0586 86.8962 38.0586C86.5563 38.0586 86.2565 37.9785 85.9968 37.8184C85.7389 37.6562 85.5397 37.4268 85.3991 37.1299C85.2585 36.833 85.1852 36.4883 85.1794 36.0957V35.6973C85.1794 35.2949 85.2507 34.9404 85.3932 34.6338C85.5358 34.3271 85.7399 34.0908 86.0055 33.9248C86.2731 33.7588 86.5817 33.6758 86.9313 33.6758C87.402 33.6758 87.7809 33.8037 88.068 34.0596C88.3552 34.3154 88.5221 34.6768 88.569 35.1436H87.8307C87.7956 34.8369 87.7057 34.6162 87.5612 34.4814C87.4186 34.3447 87.2087 34.2764 86.9313 34.2764C86.6091 34.2764 86.361 34.3945 86.1872 34.6309C86.0153 34.8652 85.9274 35.21 85.9235 35.665V36.043C85.9235 36.5039 86.0055 36.8555 86.1696 37.0977C86.3356 37.3398 86.5778 37.4609 86.8962 37.4609C87.1872 37.4609 87.4059 37.3955 87.5524 37.2646C87.6989 37.1338 87.7917 36.916 87.8307 36.6113H88.569ZM91.5387 36.1572L91.0553 36.6699V38H90.3141V33.7344H91.0553V35.7354L91.4654 35.2285L92.7135 33.7344H93.61L92.025 35.624L93.7008 38H92.8219L91.5387 36.1572ZM100.66 34.332H99.3295V38H98.5942V34.332H97.2758V33.7344H100.66V34.332ZM105.689 38H104.951V36.1045H103.043V38H102.302V33.7344H103.043V35.5098H104.951V33.7344H105.689V38ZM110.141 36.0957H108.389V37.4082H110.437V38H107.648V33.7344H110.416V34.332H108.389V35.5098H110.141V36.0957ZM115.436 36.415V38H114.694V33.7344H116.326C116.803 33.7344 117.181 33.8584 117.46 34.1064C117.741 34.3545 117.882 34.6826 117.882 35.0908C117.882 35.5088 117.744 35.834 117.469 36.0664C117.195 36.2988 116.812 36.415 116.318 36.415H115.436ZM115.436 35.8203H116.326C116.59 35.8203 116.791 35.7588 116.93 35.6357C117.068 35.5107 117.138 35.3311 117.138 35.0967C117.138 34.8662 117.068 34.6826 116.927 34.5459C116.786 34.4072 116.593 34.3359 116.347 34.332H115.436V35.8203ZM121.18 36.3564H120.354V38H119.612V33.7344H121.112C121.605 33.7344 121.984 33.8447 122.252 34.0654C122.52 34.2861 122.653 34.6055 122.653 35.0234C122.653 35.3086 122.584 35.5479 122.445 35.7412C122.309 35.9326 122.117 36.0801 121.871 36.1836L122.829 37.9619V38H122.035L121.18 36.3564ZM120.354 35.7617H121.115C121.365 35.7617 121.561 35.6992 121.701 35.5742C121.842 35.4473 121.912 35.2744 121.912 35.0557C121.912 34.8271 121.847 34.6504 121.716 34.5254C121.587 34.4004 121.394 34.3359 121.136 34.332H120.354V35.7617ZM127.841 35.9785C127.841 36.3965 127.769 36.7637 127.624 37.0801C127.479 37.3945 127.272 37.6367 127.003 37.8066C126.735 37.9746 126.427 38.0586 126.077 38.0586C125.731 38.0586 125.423 37.9746 125.151 37.8066C124.882 37.6367 124.673 37.3955 124.524 37.083C124.378 36.7705 124.304 36.4102 124.302 36.002V35.7617C124.302 35.3457 124.375 34.9785 124.521 34.6602C124.67 34.3418 124.878 34.0986 125.145 33.9307C125.415 33.7607 125.724 33.6758 126.071 33.6758C126.419 33.6758 126.727 33.7598 126.994 33.9277C127.264 34.0938 127.472 34.334 127.618 34.6484C127.765 34.9609 127.839 35.3252 127.841 35.7412V35.9785ZM127.1 35.7559C127.1 35.2832 127.01 34.9209 126.83 34.6689C126.652 34.417 126.399 34.291 126.071 34.291C125.751 34.291 125.5 34.417 125.318 34.6689C125.139 34.9189 125.047 35.2734 125.043 35.7324V35.9785C125.043 36.4473 125.134 36.8096 125.315 37.0654C125.499 37.3213 125.753 37.4492 126.077 37.4492C126.405 37.4492 126.657 37.3242 126.833 37.0742C127.011 36.8242 127.1 36.459 127.1 35.9785V35.7559ZM129.659 38V33.7344H131.121C131.603 33.7344 131.971 33.8311 132.223 34.0244C132.474 34.2178 132.6 34.5059 132.6 34.8887C132.6 35.084 132.548 35.2598 132.442 35.416C132.337 35.5723 132.182 35.6934 131.979 35.7793C132.21 35.8418 132.388 35.96 132.513 36.1338C132.64 36.3057 132.703 36.5127 132.703 36.7549C132.703 37.1553 132.574 37.4629 132.316 37.6777C132.06 37.8926 131.693 38 131.215 38H129.659ZM130.4 36.0752V37.4082H131.224C131.456 37.4082 131.638 37.3506 131.768 37.2354C131.899 37.1201 131.965 36.96 131.965 36.7549C131.965 36.3115 131.738 36.085 131.285 36.0752H130.4ZM130.4 35.5303H131.127C131.357 35.5303 131.537 35.4785 131.666 35.375C131.797 35.2695 131.862 35.1211 131.862 34.9297C131.862 34.7188 131.802 34.5664 131.681 34.4727C131.561 34.3789 131.375 34.332 131.121 34.332H130.4V35.5303ZM135.265 37.4082H137.202V38H134.524V33.7344H135.265V37.4082ZM141.343 36.0957H139.592V37.4082H141.639V38H138.85V33.7344H141.619V34.332H139.592V35.5098H141.343V36.0957ZM144.284 33.7344L145.514 37.0039L146.742 33.7344H147.7V38H146.962V36.5938L147.035 34.7129L145.775 38H145.245L143.988 34.7158L144.061 36.5938V38H143.323V33.7344H144.284ZM69.8174 45H69.0762L67.1748 41.9736V45H66.4336V40.7344H67.1748L69.082 43.7725V40.7344H69.8174V45ZM75.1777 42.9785C75.1777 43.3965 75.1054 43.7637 74.9609 44.0801C74.8163 44.3945 74.6093 44.6367 74.3398 44.8066C74.0722 44.9746 73.7636 45.0586 73.414 45.0586C73.0683 45.0586 72.7597 44.9746 72.4882 44.8066C72.2187 44.6367 72.0097 44.3955 71.8612 44.083C71.7148 43.7705 71.6405 43.4102 71.6386 43.002V42.7617C71.6386 42.3457 71.7118 41.9785 71.8583 41.6602C72.0068 41.3418 72.2148 41.0986 72.4823 40.9307C72.7519 40.7607 73.0605 40.6758 73.4081 40.6758C73.7558 40.6758 74.0634 40.7598 74.331 40.9277C74.6005 41.0938 74.8085 41.334 74.955 41.6484C75.1015 41.9609 75.1757 42.3252 75.1777 42.7412V42.9785ZM74.4364 42.7559C74.4364 42.2832 74.3466 41.9209 74.1669 41.6689C73.9892 41.417 73.7362 41.291 73.4081 41.291C73.0878 41.291 72.8368 41.417 72.6552 41.6689C72.4755 41.9189 72.3837 42.2734 72.3798 42.7324V42.9785C72.3798 43.4473 72.4706 43.8096 72.6523 44.0654C72.8359 44.3213 73.0898 44.4492 73.414 44.4492C73.7421 44.4492 73.9941 44.3242 74.1698 44.0742C74.3476 43.8242 74.4364 43.459 74.4364 42.9785V42.7559ZM79.826 41.332H78.4959V45H77.7606V41.332H76.4422V40.7344H79.826V41.332ZM86.7731 41.332H85.443V45H84.7077V41.332H83.3893V40.7344H86.7731V41.332ZM91.8023 45H91.0641V43.1045H89.1568V45H88.4156V40.7344H89.1568V42.5098H91.0641V40.7344H91.8023V45ZM96.2544 43.0957H94.5025V44.4082H96.5503V45H93.7612V40.7344H96.5298V41.332H94.5025V42.5098H96.2544V43.0957ZM101.549 43.415V45H100.808V40.7344H102.44C102.916 40.7344 103.294 40.8584 103.574 41.1064C103.855 41.3545 103.995 41.6826 103.995 42.0908C103.995 42.5088 103.858 42.834 103.582 43.0664C103.309 43.2988 102.925 43.415 102.431 43.415H101.549ZM101.549 42.8203H102.44C102.703 42.8203 102.905 42.7588 103.043 42.6357C103.182 42.5107 103.251 42.3311 103.251 42.0967C103.251 41.8662 103.181 41.6826 103.04 41.5459C102.9 41.4072 102.706 41.3359 102.46 41.332H101.549V42.8203ZM108.219 43.0957H106.467V44.4082H108.515V45H105.726V40.7344H108.494V41.332H106.467V42.5098H108.219V43.0957ZM111.766 43.3564H110.94V45H110.198V40.7344H111.698C112.191 40.7344 112.571 40.8447 112.838 41.0654C113.106 41.2861 113.239 41.6055 113.239 42.0234C113.239 42.3086 113.17 42.5479 113.031 42.7412C112.895 42.9326 112.703 43.0801 112.457 43.1836L113.415 44.9619V45H112.621L111.766 43.3564ZM110.94 42.7617H111.701C111.951 42.7617 112.147 42.6992 112.287 42.5742C112.428 42.4473 112.498 42.2744 112.498 42.0557C112.498 41.8271 112.433 41.6504 112.302 41.5254C112.173 41.4004 111.98 41.3359 111.722 41.332H110.94V42.7617ZM117.252 43.9014C117.252 43.7139 117.186 43.5693 117.053 43.4678C116.922 43.3662 116.685 43.2637 116.341 43.1602C115.997 43.0566 115.724 42.9414 115.521 42.8145C115.132 42.5703 114.938 42.252 114.938 41.8594C114.938 41.5156 115.077 41.2324 115.357 41.0098C115.638 40.7871 116.002 40.6758 116.449 40.6758C116.746 40.6758 117.011 40.7305 117.243 40.8398C117.476 40.9492 117.658 41.1055 117.791 41.3086C117.924 41.5098 117.99 41.7334 117.99 41.9795H117.252C117.252 41.7568 117.182 41.583 117.041 41.458C116.902 41.3311 116.703 41.2676 116.443 41.2676C116.201 41.2676 116.013 41.3193 115.878 41.4229C115.745 41.5264 115.679 41.6709 115.679 41.8564C115.679 42.0127 115.751 42.1436 115.896 42.249C116.04 42.3525 116.278 42.4541 116.61 42.5537C116.943 42.6514 117.209 42.7637 117.41 42.8906C117.611 43.0156 117.759 43.1602 117.853 43.3242C117.946 43.4863 117.993 43.6768 117.993 43.8955C117.993 44.251 117.857 44.5342 117.583 44.7451C117.312 44.9541 116.943 45.0586 116.476 45.0586C116.167 45.0586 115.883 45.002 115.623 44.8887C115.365 44.7734 115.164 44.6152 115.02 44.4141C114.877 44.2129 114.806 43.9785 114.806 43.7109H115.547C115.547 43.9531 115.627 44.1406 115.787 44.2734C115.947 44.4062 116.177 44.4727 116.476 44.4727C116.734 44.4727 116.927 44.4209 117.056 44.3174C117.187 44.2119 117.252 44.0732 117.252 43.9014ZM123.128 42.9785C123.128 43.3965 123.056 43.7637 122.911 44.0801C122.767 44.3945 122.56 44.6367 122.29 44.8066C122.022 44.9746 121.714 45.0586 121.364 45.0586C121.019 45.0586 120.71 44.9746 120.439 44.8066C120.169 44.6367 119.96 44.3955 119.812 44.083C119.665 43.7705 119.591 43.4102 119.589 43.002V42.7617C119.589 42.3457 119.662 41.9785 119.809 41.6602C119.957 41.3418 120.165 41.0986 120.433 40.9307C120.702 40.7607 121.011 40.6758 121.358 40.6758C121.706 40.6758 122.014 40.7598 122.281 40.9277C122.551 41.0938 122.759 41.334 122.905 41.6484C123.052 41.9609 123.126 42.3252 123.128 42.7412V42.9785ZM122.387 42.7559C122.387 42.2832 122.297 41.9209 122.117 41.6689C121.939 41.417 121.687 41.291 121.358 41.291C121.038 41.291 120.787 41.417 120.606 41.6689C120.426 41.9189 120.334 42.2734 120.33 42.7324V42.9785C120.33 43.4473 120.421 43.8096 120.603 44.0654C120.786 44.3213 121.04 44.4492 121.364 44.4492C121.692 44.4492 121.944 44.3242 122.12 44.0742C122.298 43.8242 122.387 43.459 122.387 42.9785V42.7559ZM128.33 45H127.589L125.687 41.9736V45H124.946V40.7344H125.687L127.595 43.7725V40.7344H128.33V45Z" fill="white"/>
</svg>
